# xmcd
# Copyright (C) 1995-1998 Ti Kan
#
# Track frame offsets:
#       150
#       16072
#       33318
#       57988
#       83541
#       102304
#       124195
#       145879
#       162841
#       188606
#       203362
#       225416
#       240538
#
# Disc length: 3764 seconds
#
# Revision: 0
# Processed by: cddbd v1.5.2PL0 Copyright (c) Steve Scherf et al.
# Submitted via: CD-Transfer v1.0
#
DISCID=940eb20d
DTITLE=Tinariwen - Ibrahim Ag Alhabib
DYEAR=09
DGENRE=
TTITLE0=Imidiwan Afrik Tendam
TTITLE1=Lulla
TTITLE2=Tenhert
TTITLE3=Enseqi Ehad Didagh
TTITLE4=Tahult In
TTITLE5=Tamudjeras Asis
TTITLE6=Intitlayaghen
TTITLE7=Imazaghen N' Adagh
TTITLE8=Chegret
TTITLE9=Kel Tamashek
TTITLE10=Assuf Ag Assuf
TTITLE11=Chabiba
TTITLE12=Ere Tasfata Adounia
EXTD=
EXTT0=
EXTT1=
EXTT2=
EXTT3=
EXTT4=
EXTT5=
EXTT6=
EXTT7=
EXTT8=
EXTT9=
EXTT10=
EXTT11=
EXTT12=
PLAYORDER=
